<svg width="15" height="14" viewBox="0 0 15 14" fill="none" xmlns="http://www.w3.org/2000/svg">
<g clip-path="url(#clip0_344_18)">
<path d="M12.2575 2.20287L12.2576 2.20304C13.2967 3.26564 13.9643 4.64756 14.1566 6.13588C14.349 7.62421 14.0554 9.13549 13.3214 10.4365L13.248 10.5666L13.352 10.6739L14.5278 11.8879H10.825V8.06659L11.4906 8.75519L11.7113 8.98358L11.8219 8.68581C12.129 7.85844 12.1995 6.95944 12.0252 6.09306C11.8509 5.22667 11.4388 4.42798 10.8364 3.78989C10.234 3.15177 9.46577 2.70044 8.62084 2.48884C7.84143 2.29365 7.02661 2.30996 6.25731 2.53434L5.58977 0.492935C6.71551 0.143909 7.91304 0.104473 9.06047 0.380363C10.2718 0.671619 11.3794 1.30278 12.2575 2.20287ZM0.825 6.9675L0.825 6.96743C0.823941 5.76947 1.13458 4.59284 1.72499 3.55744L1.80038 3.42522L1.69304 3.31732L0.481049 2.09892H4.175V3.75773V3.76274V3.84234V3.8445V5.81366L3.5668 5.20217L3.34846 4.98264L3.23813 5.27193C2.92232 6.09997 2.84456 7.00234 3.01381 7.8736C3.18307 8.74487 3.59245 9.54946 4.19457 10.1931C4.79671 10.8367 5.56674 11.2927 6.41477 11.5073C7.19733 11.7052 8.01605 11.6898 8.78893 11.4645L9.45637 13.5056C8.82499 13.7003 8.1687 13.7996 7.50844 13.8001C5.7357 13.7939 4.03679 13.0725 2.78387 11.7923C1.53073 10.512 0.825954 8.77718 0.825 6.9675Z" fill="#56423E" stroke="#FFF9F6" stroke-width="0.4"/>
</g>
<defs>
<clipPath id="clip0_344_18">
<rect width="15" height="14" fill="white"/>
</clipPath>
</defs>
</svg>
